<svg xmlns="http://www.w3.org/2000/svg" width="50" height="50" viewBox="0 0 50 50">
  <g id="Group_38" data-name="Group 38" transform="translate(-898 -132)">
    <circle id="Ellipse_5" data-name="Ellipse 5" cx="25" cy="25" r="25" transform="translate(898 132)" fill="#59d169"/>
    <g id="call-24px" transform="translate(909.565 143.565)">
      <path id="Path_74" data-name="Path 74" d="M0,0H26.87V26.87H0Z" fill="none"/>
      <path id="Path_75" data-name="Path 75" d="M22.044,16.861a12.811,12.811,0,0,1-3.952-.627,1.094,1.094,0,0,0-1.131.269L15.2,18.708A17,17,0,0,1,7.49,11.061L9.673,9.2a1.143,1.143,0,0,0,.269-1.142,12.486,12.486,0,0,1-.627-3.952A1.118,1.118,0,0,0,8.206,3H4.332C3.728,3,3,3.269,3,4.108A19.2,19.2,0,0,0,22.044,23.153a1.175,1.175,0,0,0,1.108-1.321V17.969A1.118,1.118,0,0,0,22.044,16.861Z" transform="translate(0.359 0.359)" fill="#fff"/>
    </g>
  </g>
</svg>
