<?xml version="1.0" encoding="utf-8"?>
<!-- Generator: Adobe Illustrator 21.1.0, SVG Export Plug-In . SVG Version: 6.00 Build 0)  -->
<svg version="1.1" id="Layer_1" xmlns="http://www.w3.org/2000/svg" xmlns:xlink="http://www.w3.org/1999/xlink" x="0px" y="0px"
	 viewBox="0 0 552 212.5" style="enable-background:new 0 0 552 212.5;" xml:space="preserve">
<style type="text/css">
	.st0{fill:#009798;}
</style>
<g>
	<g>
		<path class="st0" d="M104.5,146.7c-1.4,1.1-2.2,1.6-2.9,2.2c-8.9,6.7-18.6,8.3-28.9,4C62.5,148.7,56.4,141,54.4,130
			c-3.1-17.2,9.2-32.4,24.2-34.5c6.6-0.9,13-0.1,18.9,3.2c1.7,0.9,2.9,2.2,2.6,4.1c-0.8,5-1.7,10.1-2.6,15.1
			c-0.1,0.4-0.4,0.7-0.7,1.3c-1-0.9-1.8-1.7-2.6-2.5c-3.5-3.2-7.7-4.9-12.5-4.2c-5.3,0.7-9,4.3-10.2,9.5c-1.3,5.6,0.8,10.1,5.1,13.5
			c4.3,3.4,8.9,3,13.5,0.5c3.5-1.9,6-4.9,7.8-8.4c4.3-8.2,5.8-17.1,6.3-26.2c0.1-2.5,1.1-3.3,3.5-3.2c3.3,0.1,6.6,0.1,9.9,0
			c1.9,0,2.9,0.7,2.9,2.7c0,17.2,0,34.5,0,51.7c0,1.7-0.7,2.6-2.5,2.6c-3.6,0-7.3,0-10.9,0c-1.8,0-2.7-0.8-2.7-2.7
			C104.5,150.9,104.5,149.2,104.5,146.7z"/>
		<path class="st0" d="M198.6,119.5c-3.3-3.8-6.9-6.3-11.7-6.9c-5-0.6-9.9,1.7-12.4,6c-2.7,4.8-2.1,10.2,1.5,14.8
			c3.2,4,8,5.6,12.8,4.1s8.1-4.7,10.4-9c3.5-6.3,5.4-13.1,6.2-20.2c0.2-1.4,0.4-2.7,0.6-4.5c4,3.4,6.3,7.4,7.8,11.9
			c5.7,16.7-4.1,34.5-21.2,38.7s-34-7.1-36.8-24.5c-3-19.2,12.6-36.2,32-34.5c3.8,0.3,7.6,2.1,11.3,3.4c1.9,0.7,2.7,2.2,2.6,4.3
			C201.4,108.6,200.7,114,198.6,119.5z"/>
		<path class="st0" d="M242.1,114.7c-0.6-4.1-1-7.3-1.5-10.6c-0.4-2.5,0.9-4,2.9-5.2c10.8-6.1,26.5-3.5,34.9,5.6
			c4.4,4.8,6.7,10.2,6.6,16.8c-0.2,10.1,0,20.3,0,30.4c0,3.3-0.3,3.5-3.5,3.5c-2.4,0-4.8-0.1-7.2,0c-2.4,0.1-3.2-0.9-3.2-3.2
			c0.1-9.2,0.1-18.5,0-27.7c0-2-0.2-4.1-0.8-6.1c-1.5-5.3-6-8.5-11.5-9.1C252.7,108.6,247.2,109.5,242.1,114.7z"/>
		<path class="st0" d="M237.8,148.5c-4.9-4.6-7.8-9.5-10.1-14.8c-3.1-7.1-5.3-14.4-4.6-22.3c0.3-3.5,0.1-7.1,0.1-10.6
			c0-1.8,0.8-2.6,2.5-2.5c2.6,0,5.3,0,7.9,0c1.4,0,2,0.5,2.2,2c0.8,5.4,1.8,10.9,2.7,16.3c0.1,0.4,0.1,0.8,0.1,1.2
			c-0.3,9-0.6,18.1-0.9,27.1C237.8,145.8,237.8,146.8,237.8,148.5z"/>
		<path class="st0" d="M130.3,100.6c7.1,3.3,8.9,3.3,16.5-0.2c-0.6,17.4-4.5,33.2-16.5,47C130.3,131.5,130.3,116.2,130.3,100.6z"/>
		<path class="st0" d="M146.7,89.6c0,4.7-3.5,8.3-8.3,8.3c-4.9,0-8.4-3.5-8.3-8.4c0-4.8,3.6-8.2,8.3-8.2
			C143.2,81.3,146.7,84.9,146.7,89.6z"/>
		<path class="st0" d="M130.2,153.2c8.9-5.5,12.4-14.5,16.2-23.6c0.1,0.3,0.3,0.4,0.3,0.6c0,7.2,0,14.3,0,21.5c0,2.6-1,3.6-3.6,3.6
			c-3.1,0-6.3,0.1-9.4,0c-1.2-0.1-2.3-0.7-3.4-1.1C130.2,153.8,130.2,153.5,130.2,153.2z"/>
		<path class="st0" d="M223.3,135.4c2.4,3.8,5.1,8.3,8.1,12.5c1.4,2,3.5,3.4,5.3,5.1c0.4,0.4,0.9,1,0.8,1.3
			c-0.1,0.4-0.8,0.9-1.3,0.9c-3.8,0.1-7.6,0.1-11.3-0.1c-0.6,0-1.5-1.4-1.5-2.1C223.2,146.8,223.3,140.6,223.3,135.4z"/>
	</g>
	<g>
		<path d="M323.2,142.8c-2.5,0-4.7-0.6-6.7-1.7s-3.5-2.7-4.7-4.7c-1.1-2-1.7-4.2-1.7-6.7s0.6-4.7,1.7-6.7c1.1-2,2.7-3.5,4.7-4.7
			c2-1.1,4.2-1.7,6.7-1.7c2.2,0,4.3,0.5,6.1,1.5s3.2,2.3,4.2,3.9v-14.6c0-0.4,0.1-0.8,0.4-1c0.3-0.2,0.6-0.4,1-0.4s0.8,0.1,1,0.4
			c0.2,0.2,0.4,0.6,0.4,1V130c0,2.4-0.6,4.6-1.8,6.5s-2.7,3.5-4.7,4.6C327.8,142.2,325.6,142.8,323.2,142.8z M323.2,140.1
			c2,0,3.7-0.5,5.3-1.4c1.5-0.9,2.8-2.2,3.6-3.7c0.9-1.6,1.3-3.4,1.3-5.4s-0.4-3.8-1.3-5.3c-0.9-1.6-2.1-2.8-3.6-3.7
			c-1.5-0.9-3.3-1.4-5.3-1.4c-1.9,0-3.7,0.5-5.2,1.4c-1.6,0.9-2.8,2.2-3.7,3.7c-0.9,1.6-1.4,3.3-1.4,5.3s0.5,3.8,1.4,5.4
			s2.1,2.8,3.7,3.7C319.5,139.7,321.2,140.1,323.2,140.1z"/>
		<path d="M353.5,111.5c-0.6,0-1.1-0.2-1.5-0.6s-0.6-0.9-0.6-1.6s0.2-1.3,0.7-1.6c0.5-0.4,1-0.5,1.5-0.5s1,0.2,1.5,0.5
			c0.5,0.4,0.7,0.9,0.7,1.6c0,0.6-0.2,1.1-0.6,1.6C354.6,111.3,354.1,111.5,353.5,111.5z M353.5,142.5c-0.4,0-0.7-0.1-1-0.4
			s-0.4-0.6-0.4-1v-22.8c0-0.4,0.1-0.8,0.4-1c0.3-0.2,0.6-0.4,1-0.4s0.8,0.1,1,0.4c0.2,0.2,0.4,0.6,0.4,1v22.8c0,0.4-0.1,0.7-0.4,1
			C354.3,142.3,354,142.5,353.5,142.5z"/>
		<path d="M382.5,142.8c-2.6,0-4.8-0.6-6.8-1.7s-3.5-2.7-4.6-4.6c-1.1-2-1.7-4.2-1.7-6.7c0-2.6,0.6-4.8,1.7-6.8
			c1.2-2,2.7-3.5,4.7-4.6s4.2-1.7,6.7-1.7c2.6,0,4.8,0.6,6.8,1.7c1.9,1.1,3.5,2.7,4.6,4.6c1.1,2,1.7,4.2,1.7,6.8l-1.6,1.9
			c0,2.2-0.5,4.1-1.5,5.8c-1,1.7-2.3,3-4,4C386.8,142.3,384.8,142.8,382.5,142.8z M382.7,152.2c-2.6,0-4.8-0.5-6.6-1.5
			s-3.3-2.2-4.5-3.7c-0.2-0.3-0.4-0.6-0.4-1c0-0.3,0.2-0.6,0.5-0.8c0.3-0.2,0.7-0.3,1.1-0.3c0.4,0.1,0.7,0.3,1,0.6
			c1,1.2,2.2,2.1,3.7,2.9s3.3,1.1,5.3,1.1c1.9,0,3.7-0.5,5.2-1.4s2.7-2.2,3.6-3.9c0.9-1.6,1.3-3.5,1.3-5.5v-7.4l1.3-1.7h1.5v9.2
			c0,2.5-0.6,4.8-1.7,6.8c-1.1,2-2.7,3.6-4.6,4.8C387.4,151.7,385.2,152.2,382.7,152.2z M382.5,140.1c2,0,3.8-0.4,5.3-1.3
			s2.8-2.1,3.6-3.7c0.9-1.6,1.3-3.4,1.3-5.4c0-2.1-0.4-3.9-1.3-5.5c-0.9-1.6-2.1-2.8-3.6-3.7c-1.5-0.9-3.3-1.3-5.3-1.3
			s-3.8,0.4-5.3,1.3c-1.6,0.9-2.8,2.1-3.6,3.7c-0.9,1.6-1.3,3.4-1.3,5.5c0,2,0.4,3.8,1.3,5.4c0.9,1.6,2.1,2.8,3.6,3.7
			C378.8,139.7,380.5,140.1,382.5,140.1z"/>
		<path d="M411.4,111.5c-0.6,0-1.1-0.2-1.5-0.6s-0.6-0.9-0.6-1.6s0.2-1.3,0.7-1.6c0.5-0.4,1-0.5,1.5-0.5s1,0.2,1.5,0.5
			c0.5,0.4,0.7,0.9,0.7,1.6c0,0.6-0.2,1.1-0.6,1.6C412.6,111.3,412.1,111.5,411.4,111.5z M411.5,142.5c-0.4,0-0.7-0.1-1-0.4
			s-0.4-0.6-0.4-1v-22.8c0-0.4,0.1-0.8,0.4-1c0.3-0.2,0.6-0.4,1-0.4s0.8,0.1,1,0.4c0.2,0.2,0.4,0.6,0.4,1v22.8c0,0.4-0.1,0.7-0.4,1
			C412.3,142.3,411.9,142.5,411.5,142.5z"/>
		<path d="M426.8,120.3c-0.4,0-0.7-0.1-0.9-0.4c-0.2-0.2-0.4-0.5-0.4-0.9s0.1-0.7,0.4-0.9c0.2-0.2,0.5-0.4,0.9-0.4h12.7
			c0.4,0,0.7,0.1,0.9,0.4c0.2,0.2,0.4,0.5,0.4,0.9s-0.1,0.7-0.4,0.9c-0.2,0.2-0.5,0.4-0.9,0.4H426.8z M439.3,142.5
			c-1.7,0-3.2-0.4-4.6-1.2c-1.3-0.8-2.4-1.8-3.1-3.2c-0.7-1.4-1.1-2.9-1.1-4.6v-23.3c0-0.4,0.1-0.8,0.4-1.1c0.3-0.3,0.6-0.4,1-0.4
			s0.8,0.1,1.1,0.4s0.4,0.6,0.4,1.1v23.3c0,1.8,0.6,3.3,1.7,4.4c1.1,1.1,2.6,1.7,4.4,1.7h1c0.4,0,0.8,0.1,1.1,0.4s0.4,0.6,0.4,1.1
			c0,0.4-0.1,0.7-0.4,1c-0.3,0.3-0.6,0.4-1.1,0.4L439.3,142.5L439.3,142.5z"/>
		<path d="M465.9,142.8c-2.5,0-4.7-0.6-6.7-1.7s-3.5-2.7-4.7-4.7c-1.1-2-1.7-4.2-1.7-6.7s0.6-4.7,1.7-6.7c1.1-2,2.7-3.5,4.7-4.7
			c2-1.1,4.2-1.7,6.7-1.7s4.7,0.6,6.7,1.7s3.5,2.7,4.7,4.7c1.1,2,1.7,4.2,1.7,6.7l-1.2,1.9c0,2.1-0.5,4-1.6,5.7c-1,1.7-2.5,3-4.2,4
			C470.2,142.3,468.2,142.8,465.9,142.8z M465.9,140.1c2,0,3.7-0.5,5.3-1.4c1.5-0.9,2.8-2.2,3.6-3.7c0.9-1.6,1.3-3.3,1.3-5.3
			s-0.4-3.8-1.3-5.4c-0.9-1.6-2.1-2.8-3.6-3.7c-1.5-0.9-3.3-1.4-5.3-1.4c-1.9,0-3.7,0.5-5.2,1.4c-1.6,0.9-2.8,2.2-3.7,3.7
			c-0.9,1.6-1.4,3.4-1.4,5.4s0.5,3.7,1.4,5.3c0.9,1.6,2.1,2.8,3.7,3.7C462.2,139.7,464,140.1,465.9,140.1z M477.5,142.5
			c-0.4,0-0.7-0.1-1-0.4s-0.4-0.6-0.4-1v-8.6l0.9-2.8h1.9v11.4c0,0.4-0.1,0.7-0.4,1C478.3,142.3,478,142.5,477.5,142.5z"/>
		<path d="M497.7,142.5c-1.2,0-2.2-0.3-3.2-1c-0.9-0.7-1.6-1.6-2.2-2.7c-0.5-1.2-0.8-2.5-0.8-4v-27.4c0-0.4,0.1-0.8,0.4-1
			c0.3-0.2,0.6-0.4,1-0.4s0.8,0.1,1,0.4c0.2,0.2,0.4,0.6,0.4,1v27.4c0,1.4,0.3,2.6,0.9,3.5c0.6,0.9,1.4,1.4,2.4,1.4h1.2
			c0.3,0,0.6,0.1,0.8,0.4c0.2,0.2,0.3,0.6,0.3,1s-0.1,0.7-0.4,1c-0.2,0.3-0.6,0.4-1,0.4L497.7,142.5L497.7,142.5z"/>
	</g>
</g>
</svg>
