<svg xmlns="http://www.w3.org/2000/svg" width="170.626" height="28.328" viewBox="0 0 170.626 28.328">
  <g id="Aion_Logo_1_" data-name="Aion Logo (1)" transform="translate(-53.918 -81.3)">
    <g id="Group_28" data-name="Group 28" transform="translate(53.918 81.3)">
      <path id="Path_47" data-name="Path 47" d="M73.27,114.876c-.536.421-.842.612-1.109.842a10.585,10.585,0,0,1-11.057,1.53,11.053,11.053,0,0,1-7-8.761A11.283,11.283,0,0,1,70.592,96.512a1.509,1.509,0,0,1,.995,1.569c-.306,1.913-.65,3.864-.995,5.777a3.362,3.362,0,0,1-.268.5c-.383-.344-.689-.65-.995-.956a5.689,5.689,0,0,0-4.782-1.607,4.507,4.507,0,0,0-3.9,3.635,4.846,4.846,0,0,0,1.951,5.165,4.364,4.364,0,0,0,5.165.191,7.346,7.346,0,0,0,2.984-3.214,23.993,23.993,0,0,0,2.41-10.024c.038-.956.421-1.263,1.339-1.224q1.894.057,3.788,0c.727,0,1.11.268,1.11,1.033v19.78c0,.65-.268.995-.956.995h-4.17a.9.9,0,0,1-1.033-1.033C73.27,116.483,73.27,115.833,73.27,114.876Z" transform="translate(-53.918 -89.855)" fill="#009798"/>
      <path id="Path_48" data-name="Path 48" d="M171.946,104.548a6.938,6.938,0,0,0-4.476-2.64,4.8,4.8,0,0,0-4.744,2.3,4.937,4.937,0,0,0,.574,5.662,4.434,4.434,0,0,0,4.9,1.569,6.7,6.7,0,0,0,3.979-3.443,20.423,20.423,0,0,0,2.372-7.728c.077-.536.153-1.033.23-1.722a9.772,9.772,0,0,1,2.984,4.553,11.464,11.464,0,1,1-9.947-7.766,18.071,18.071,0,0,1,4.323,1.3,1.5,1.5,0,0,1,.995,1.645A20.209,20.209,0,0,1,171.946,104.548Z" transform="translate(-116.592 -89.933)" fill="#009798"/>
      <path id="Path_49" data-name="Path 49" d="M241.129,102.9c-.23-1.569-.383-2.793-.574-4.055a1.852,1.852,0,0,1,1.109-1.989A11.458,11.458,0,0,1,255.017,99a8.92,8.92,0,0,1,2.525,6.427c-.077,3.864,0,7.766,0,11.631,0,1.263-.115,1.339-1.339,1.339-.918,0-1.836-.038-2.755,0s-1.224-.344-1.224-1.224c.038-3.52.038-7.078,0-10.6a8.157,8.157,0,0,0-.306-2.334,4.889,4.889,0,0,0-4.4-3.482A7.317,7.317,0,0,0,241.129,102.9Z" transform="translate(-169.134 -90.123)" fill="#009798"/>
      <path id="Path_50" data-name="Path 50" d="M228.643,117.5a16.266,16.266,0,0,1-3.864-5.662,17.3,17.3,0,0,1-1.76-8.532c.115-1.339.038-2.716.038-4.055,0-.689.306-.995.956-.956h3.022c.536,0,.765.191.842.765.306,2.066.689,4.17,1.033,6.236a1.862,1.862,0,0,1,.038.459c-.115,3.443-.23,6.925-.344,10.368A13.171,13.171,0,0,1,228.643,117.5Z" transform="translate(-158.293 -91.791)" fill="#009798"/>
      <path id="Path_51" data-name="Path 51" d="M130.3,100.477c2.716,1.263,3.4,1.263,6.313-.077-.23,6.657-1.722,12.7-6.313,17.982Z" transform="translate(-101.077 -93.093)" fill="#009798"/>
      <path id="Path_52" data-name="Path 52" d="M136.45,84.475a3.1,3.1,0,0,1-3.175,3.175,3.175,3.175,0,1,1,0-6.351A3.1,3.1,0,0,1,136.45,84.475Z" transform="translate(-100.953 -81.3)" fill="#009798"/>
      <path id="Path_53" data-name="Path 53" d="M130.2,138.629c3.4-2.1,4.744-5.547,6.2-9.029.038.115.115.153.115.23v8.226c0,.995-.383,1.377-1.377,1.377-1.186,0-2.41.038-3.6,0a5.172,5.172,0,0,1-1.3-.421A1.436,1.436,0,0,1,130.2,138.629Z" transform="translate(-101.016 -111.121)" fill="#009798"/>
      <path id="Path_54" data-name="Path 54" d="M223.285,135.4c.918,1.454,1.951,3.175,3.1,4.782a14.014,14.014,0,0,0,2.028,1.951c.153.153.344.383.306.5a.612.612,0,0,1-.5.344c-1.454.038-2.908.038-4.323-.038-.23,0-.574-.536-.574-.8C223.246,139.761,223.285,137.389,223.285,135.4Z" transform="translate(-158.482 -114.702)" fill="#009798"/>
    </g>
    <g id="Group_29" data-name="Group 29" transform="translate(151.93 90.75)">
      <path id="Path_55" data-name="Path 55" d="M315.112,120.079a5.207,5.207,0,0,1-2.563-.65,4.773,4.773,0,0,1-1.8-1.8,5.376,5.376,0,0,1,0-5.127,4.773,4.773,0,0,1,1.8-1.8,5.207,5.207,0,0,1,2.563-.65,4.793,4.793,0,0,1,2.334.574,4.326,4.326,0,0,1,1.607,1.492v-5.586a.444.444,0,0,1,.153-.383.68.68,0,0,1,.383-.153.444.444,0,0,1,.383.153.584.584,0,0,1,.153.383v8.646a4.589,4.589,0,0,1-.689,2.487,4.957,4.957,0,0,1-1.8,1.76A5.168,5.168,0,0,1,315.112,120.079Zm0-1.033a4.01,4.01,0,0,0,2.028-.536,3.76,3.76,0,0,0,1.377-1.416,4.129,4.129,0,0,0,.5-2.066,3.89,3.89,0,0,0-.5-2.028,3.767,3.767,0,0,0-1.377-1.416,4.034,4.034,0,0,0-4.017,0A3.864,3.864,0,0,0,311.707,113a4.009,4.009,0,0,0-.536,2.028,4.153,4.153,0,0,0,.536,2.066,3.6,3.6,0,0,0,1.416,1.416A3.451,3.451,0,0,0,315.112,119.046Z" transform="translate(-310.1 -106)"/>
      <path id="Path_56" data-name="Path 56" d="M352.2,108.845a.779.779,0,0,1-.574-.23.808.808,0,0,1-.23-.612.671.671,0,0,1,.268-.612.865.865,0,0,1,.574-.191,1.138,1.138,0,0,1,.574.191.713.713,0,0,1,.268.612.938.938,0,0,1-.23.612A1.123,1.123,0,0,1,352.2,108.845Zm0,11.86a.523.523,0,0,1-.536-.536v-8.723a.444.444,0,0,1,.153-.383.68.68,0,0,1,.383-.153.444.444,0,0,1,.383.153.584.584,0,0,1,.153.383v8.723a.491.491,0,0,1-.153.383A.51.51,0,0,1,352.2,120.705Z" transform="translate(-335.599 -106.741)"/>
      <path id="Path_57" data-name="Path 57" d="M374.412,126.685a5.248,5.248,0,0,1-2.6-.65,4.576,4.576,0,0,1-1.76-1.76,5.452,5.452,0,0,1,0-5.165,4.672,4.672,0,0,1,1.8-1.76,5.452,5.452,0,0,1,5.165,0,4.851,4.851,0,0,1,1.76,1.76,5.248,5.248,0,0,1,.65,2.6l-.612.727a4.261,4.261,0,0,1-.574,2.219,4.193,4.193,0,0,1-1.53,1.53A5.34,5.34,0,0,1,374.412,126.685Zm.077,3.6a5.133,5.133,0,0,1-2.525-.574,5.694,5.694,0,0,1-1.722-1.416.68.68,0,0,1-.153-.383.39.39,0,0,1,.191-.306.771.771,0,0,1,.421-.115.794.794,0,0,1,.383.23,4.565,4.565,0,0,0,1.416,1.109,4.278,4.278,0,0,0,2.028.421,3.869,3.869,0,0,0,1.989-.536,3.721,3.721,0,0,0,1.377-1.492,4.275,4.275,0,0,0,.5-2.1v-2.831l.5-.65h.574v3.52a5.355,5.355,0,0,1-.65,2.6,5.065,5.065,0,0,1-1.76,1.836A4.529,4.529,0,0,1,374.488,130.282Zm-.077-4.629a3.89,3.89,0,0,0,2.028-.5,3.5,3.5,0,0,0,1.377-1.416,4.129,4.129,0,0,0,.5-2.066,4.177,4.177,0,0,0-.5-2.1,3.767,3.767,0,0,0-1.377-1.416,4.382,4.382,0,0,0-4.055,0,3.277,3.277,0,0,0-1.377,1.416,4.176,4.176,0,0,0-.5,2.1,4.129,4.129,0,0,0,.5,2.066,3.767,3.767,0,0,0,1.377,1.416A3.985,3.985,0,0,0,374.412,125.653Z" transform="translate(-346.713 -112.606)"/>
      <path id="Path_58" data-name="Path 58" d="M410.1,108.845a.779.779,0,0,1-.574-.23.808.808,0,0,1-.23-.612.671.671,0,0,1,.268-.612.865.865,0,0,1,.574-.191,1.138,1.138,0,0,1,.574.191.713.713,0,0,1,.268.612.938.938,0,0,1-.23.612A.965.965,0,0,1,410.1,108.845Zm.038,11.86a.523.523,0,0,1-.536-.536v-8.723a.444.444,0,0,1,.153-.383.68.68,0,0,1,.383-.153.444.444,0,0,1,.383.153.584.584,0,0,1,.153.383v8.723a.491.491,0,0,1-.153.383A.585.585,0,0,1,410.142,120.705Z" transform="translate(-371.347 -106.741)"/>
      <path id="Path_59" data-name="Path 59" d="M426,113.138a.373.373,0,0,1-.344-.153.485.485,0,0,1-.153-.344.373.373,0,0,1,.153-.344.485.485,0,0,1,.344-.153h4.859a.373.373,0,0,1,.344.153.485.485,0,0,1,.153.344.373.373,0,0,1-.153.344.485.485,0,0,1-.344.153Zm4.782,8.493a3.452,3.452,0,0,1-1.76-.459,3.045,3.045,0,0,1-1.186-1.224,3.853,3.853,0,0,1-.421-1.76v-8.914a.575.575,0,0,1,.153-.421.491.491,0,0,1,.383-.153.575.575,0,0,1,.421.153.523.523,0,0,1,.153.421v8.914a2.229,2.229,0,0,0,2.334,2.334h.383a.575.575,0,0,1,.421.153.522.522,0,0,1,.153.421.491.491,0,0,1-.153.383.523.523,0,0,1-.421.153Z" transform="translate(-381.35 -107.667)"/>
      <path id="Path_60" data-name="Path 60" d="M457.812,126.624a5.207,5.207,0,0,1-2.563-.65,4.773,4.773,0,0,1-1.8-1.8,5.376,5.376,0,0,1,0-5.127,4.773,4.773,0,0,1,1.8-1.8,5.377,5.377,0,0,1,5.127,0,4.773,4.773,0,0,1,1.8,1.8,5.207,5.207,0,0,1,.65,2.563l-.459.727a3.913,3.913,0,0,1-.612,2.181,4.406,4.406,0,0,1-1.607,1.53A4.689,4.689,0,0,1,457.812,126.624Zm0-1.033a4.009,4.009,0,0,0,2.028-.536,3.76,3.76,0,0,0,1.377-1.416,3.985,3.985,0,0,0,.5-2.028,4.129,4.129,0,0,0-.5-2.066,3.767,3.767,0,0,0-1.377-1.416,4.033,4.033,0,0,0-4.017,0,3.864,3.864,0,0,0-1.416,1.416,4.153,4.153,0,0,0-.536,2.066,4.009,4.009,0,0,0,.536,2.028,3.6,3.6,0,0,0,1.416,1.416A3.533,3.533,0,0,0,457.812,125.591Zm4.438.918a.523.523,0,0,1-.536-.536v-3.29l.344-1.071h.727v4.361a.491.491,0,0,1-.153.383A.51.51,0,0,1,462.25,126.509Z" transform="translate(-398.205 -112.545)"/>
      <path id="Path_61" data-name="Path 61" d="M493.872,119.964a2.022,2.022,0,0,1-1.224-.383,3.22,3.22,0,0,1-.842-1.033,3.9,3.9,0,0,1-.306-1.53V106.536a.444.444,0,0,1,.153-.383.68.68,0,0,1,.383-.153.444.444,0,0,1,.383.153.585.585,0,0,1,.153.383v10.483a2.4,2.4,0,0,0,.344,1.339,1.075,1.075,0,0,0,.918.536h.459a.348.348,0,0,1,.306.153.571.571,0,0,1,.115.383.491.491,0,0,1-.153.383.444.444,0,0,1-.383.153Z" transform="translate(-422.099 -106)"/>
    </g>
  </g>
</svg>
