<svg xmlns="http://www.w3.org/2000/svg" width="50" height="50" viewBox="0 0 50 50">
  <g id="Group_32" data-name="Group 32" transform="translate(-462 -560)">
    <circle id="Ellipse_1" data-name="Ellipse 1" cx="25" cy="25" r="25" transform="translate(462 560)" fill="#b4b4b4"/>
    <path id="Path_68" data-name="Path 68" d="M12.222,17.956v-6.7a4.083,4.083,0,0,1,8.164,0v6.7a4.083,4.083,0,0,1-8.164,0Zm10.716-2.344H21.917a.506.506,0,0,0-.51.5V17.9a5.1,5.1,0,0,1-10.205.055V16.114a.506.506,0,0,0-.51-.5H9.67a.506.506,0,0,0-.51.5v1.842a7.079,7.079,0,0,0,6.123,6.96V26.83H12.392a.506.506,0,0,0-.51.5v.837a.506.506,0,0,0,.51.5h7.824a.506.506,0,0,0,.51-.5v-.837a.506.506,0,0,0-.51-.5H17.324V24.916a7.08,7.08,0,0,0,6.123-6.96V16.114A.506.506,0,0,0,22.937,15.612Z" transform="translate(470.84 566.76)" fill="#fff"/>
  </g>
</svg>
