<svg xmlns="http://www.w3.org/2000/svg" width="60" height="60" viewBox="0 0 60 60">
  <g id="Group_591" data-name="Group 591" transform="translate(634 -4114)">
    <circle id="Ellipse_86" data-name="Ellipse 86" cx="30" cy="30" r="30" transform="translate(-634 4114)" fill="#fff"/>
    <g id="phone_missed-24px" transform="translate(-622 4126)">
      <path id="Path_2057" data-name="Path 2057" d="M0,0H36V36H0Z" fill="none"/>
      <path id="Path_2058" data-name="Path 2058" d="M9.75,6.75,18,15,28.5,4.5,27,3l-9,9L11.25,5.25H16.5V3h-9v9H9.75ZM35.564,23.5a25.524,25.524,0,0,0-35.129,0,1.521,1.521,0,0,0,0,2.13l3.72,3.72a1.5,1.5,0,0,0,1.065.435,1.539,1.539,0,0,0,1.05-.42,17.127,17.127,0,0,1,3.99-2.775,1.494,1.494,0,0,0,.84-1.35v-4.65A21.935,21.935,0,0,1,18,19.5a22.365,22.365,0,0,1,6.9,1.08v4.65a1.511,1.511,0,0,0,.84,1.35,17.681,17.681,0,0,1,4,2.775,1.473,1.473,0,0,0,1.05.42,1.5,1.5,0,0,0,1.065-.435l3.72-3.72a1.5,1.5,0,0,0,.435-1.065,1.473,1.473,0,0,0-.45-1.05Z" transform="translate(0 1.5)" fill="#b195cb"/>
    </g>
  </g>
</svg>
