<svg xmlns="http://www.w3.org/2000/svg" width="50" height="50" viewBox="0 0 50 50">
  <g id="Group_39" data-name="Group 39" transform="translate(-1004 -130)">
    <circle id="Ellipse_2" data-name="Ellipse 2" cx="25" cy="25" r="25" transform="translate(1004 130)" fill="#ff5b5b"/>
    <g id="call_end" transform="translate(1015 141)">
      <path id="Path_66" data-name="Path 66" d="M0,0H27.654V27.654H0Z" fill="none"/>
      <path id="Path_67" data-name="Path 67" d="M13.827,9.3a17.181,17.181,0,0,0-5.3.83v3.572a1.161,1.161,0,0,1-.645,1.037,13.264,13.264,0,0,0-3.065,2.132,1.132,1.132,0,0,1-.807.323,1.149,1.149,0,0,1-.818-.334L.334,14.006A1.1,1.1,0,0,1,0,13.2a1.149,1.149,0,0,1,.334-.818,19.607,19.607,0,0,1,26.986,0,1.169,1.169,0,0,1,0,1.636l-2.858,2.858a1.149,1.149,0,0,1-.818.334,1.182,1.182,0,0,1-.807-.323,12.986,12.986,0,0,0-3.077-2.132,1.148,1.148,0,0,1-.645-1.037V10.146A16.726,16.726,0,0,0,13.827,9.3Z" transform="translate(0 1.066)" fill="#fff"/>
    </g>
  </g>
</svg>
